<mxfile host="app.diagrams.net" modified="2024-05-17T10:59:26.098Z" agent="Mozilla/5.0 (Macintosh; Intel Mac OS X 10_15_7) AppleWebKit/537.36 (KHTML, like Gecko) Chrome/123.0.0.0 Safari/537.36" etag="Erg--Q7D8a2XMUEzdEc_" version="24.4.3" type="github">
  <diagram name="第 1 页" id="v7ffoWRVv22KWhD6IUQp">
    <mxGraphModel dx="2074" dy="1121" grid="1" gridSize="10" guides="1" tooltips="1" connect="1" arrows="1" fold="1" page="1" pageScale="1" pageWidth="3300" pageHeight="4681" math="0" shadow="0">
      <root>
        <mxCell id="0" />
        <mxCell id="1" parent="0" />
        <mxCell id="-jfg4AWXQA8gevnk_Bxj-1" value="" style="ellipse;whiteSpace=wrap;html=1;aspect=fixed;" parent="1" vertex="1">
          <mxGeometry x="940" y="300" width="440" height="440" as="geometry" />
        </mxCell>
        <mxCell id="-jfg4AWXQA8gevnk_Bxj-2" value="CN1" style="ellipse;whiteSpace=wrap;html=1;aspect=fixed;fillColor=#dae8fc;strokeColor=#6c8ebf;" parent="1" vertex="1">
          <mxGeometry x="1135" y="270" width="50" height="50" as="geometry" />
        </mxCell>
        <mxCell id="-jfg4AWXQA8gevnk_Bxj-5" value="CN2" style="ellipse;whiteSpace=wrap;html=1;aspect=fixed;fillColor=#dae8fc;strokeColor=#6c8ebf;" parent="1" vertex="1">
          <mxGeometry x="1330" y="610" width="50" height="50" as="geometry" />
        </mxCell>
        <mxCell id="-jfg4AWXQA8gevnk_Bxj-6" value="CN3" style="ellipse;whiteSpace=wrap;html=1;aspect=fixed;fillColor=#dae8fc;strokeColor=#6c8ebf;" parent="1" vertex="1">
          <mxGeometry x="950" y="620" width="50" height="50" as="geometry" />
        </mxCell>
        <mxCell id="-jfg4AWXQA8gevnk_Bxj-15" style="edgeStyle=orthogonalEdgeStyle;rounded=0;orthogonalLoop=1;jettySize=auto;html=1;curved=1;dashed=1;" parent="1" source="-jfg4AWXQA8gevnk_Bxj-8" target="-jfg4AWXQA8gevnk_Bxj-2" edge="1">
          <mxGeometry relative="1" as="geometry" />
        </mxCell>
        <mxCell id="-jfg4AWXQA8gevnk_Bxj-8" value="CN1" style="ellipse;whiteSpace=wrap;html=1;aspect=fixed;dashed=1;" parent="1" vertex="1">
          <mxGeometry x="1060" y="700" width="50" height="50" as="geometry" />
        </mxCell>
        <mxCell id="-jfg4AWXQA8gevnk_Bxj-9" value="CN1" style="ellipse;whiteSpace=wrap;html=1;aspect=fixed;dashed=1;" parent="1" vertex="1">
          <mxGeometry x="1360" y="470" width="50" height="50" as="geometry" />
        </mxCell>
        <mxCell id="-jfg4AWXQA8gevnk_Bxj-10" value="CN2" style="ellipse;whiteSpace=wrap;html=1;aspect=fixed;dashed=1;" parent="1" vertex="1">
          <mxGeometry x="1290" y="330" width="50" height="50" as="geometry" />
        </mxCell>
        <mxCell id="-jfg4AWXQA8gevnk_Bxj-11" value="CN2" style="ellipse;whiteSpace=wrap;html=1;aspect=fixed;dashed=1;" parent="1" vertex="1">
          <mxGeometry x="1000" y="320" width="50" height="50" as="geometry" />
        </mxCell>
        <mxCell id="-jfg4AWXQA8gevnk_Bxj-12" value="CN3" style="ellipse;whiteSpace=wrap;html=1;aspect=fixed;dashed=1;" parent="1" vertex="1">
          <mxGeometry x="1240" y="690" width="50" height="50" as="geometry" />
        </mxCell>
        <mxCell id="-jfg4AWXQA8gevnk_Bxj-13" value="CN3" style="ellipse;whiteSpace=wrap;html=1;aspect=fixed;dashed=1;" parent="1" vertex="1">
          <mxGeometry x="910" y="470" width="50" height="50" as="geometry" />
        </mxCell>
        <mxCell id="-jfg4AWXQA8gevnk_Bxj-14" value="" style="endArrow=classic;html=1;rounded=0;edgeStyle=orthogonalEdgeStyle;curved=1;dashed=1;" parent="1" source="-jfg4AWXQA8gevnk_Bxj-9" target="-jfg4AWXQA8gevnk_Bxj-2" edge="1">
          <mxGeometry width="50" height="50" relative="1" as="geometry">
            <mxPoint x="1120" y="540" as="sourcePoint" />
            <mxPoint x="1170" y="490" as="targetPoint" />
          </mxGeometry>
        </mxCell>
        <mxCell id="-jfg4AWXQA8gevnk_Bxj-16" value="&lt;span style=&quot;color: rgb(77, 77, 77); font-family: -apple-system, &amp;quot;SF UI Text&amp;quot;, Arial, &amp;quot;PingFang SC&amp;quot;, &amp;quot;Hiragino Sans GB&amp;quot;, &amp;quot;Microsoft YaHei&amp;quot;, &amp;quot;WenQuanYi Micro Hei&amp;quot;, sans-serif, SimHei, SimSun; font-size: 16px; text-align: start; background-color: rgb(255, 255, 255);&quot;&gt;0 / 2^32&lt;/span&gt;" style="text;html=1;align=center;verticalAlign=middle;whiteSpace=wrap;rounded=0;" parent="1" vertex="1">
          <mxGeometry x="880" y="380" width="60" height="30" as="geometry" />
        </mxCell>
        <mxCell id="-jfg4AWXQA8gevnk_Bxj-23" value="" style="endArrow=classic;html=1;rounded=0;entryX=0.052;entryY=0.268;entryDx=0;entryDy=0;entryPerimeter=0;" parent="1" source="-jfg4AWXQA8gevnk_Bxj-16" target="-jfg4AWXQA8gevnk_Bxj-1" edge="1">
          <mxGeometry width="50" height="50" relative="1" as="geometry">
            <mxPoint x="760" y="470" as="sourcePoint" />
            <mxPoint x="960" y="420" as="targetPoint" />
          </mxGeometry>
        </mxCell>
        <mxCell id="bN8PjPP0mZdIX8khiiVz-3" value="" style="shape=umlDestroy;whiteSpace=wrap;html=1;strokeWidth=3;targetShapes=umlLifeline;" vertex="1" parent="1">
          <mxGeometry x="1070" y="710" width="30" height="30" as="geometry" />
        </mxCell>
        <mxCell id="bN8PjPP0mZdIX8khiiVz-4" value="" style="shape=umlDestroy;whiteSpace=wrap;html=1;strokeWidth=3;targetShapes=umlLifeline;" vertex="1" parent="1">
          <mxGeometry x="1145" y="280" width="30" height="30" as="geometry" />
        </mxCell>
        <mxCell id="bN8PjPP0mZdIX8khiiVz-5" value="" style="shape=umlDestroy;whiteSpace=wrap;html=1;strokeWidth=3;targetShapes=umlLifeline;" vertex="1" parent="1">
          <mxGeometry x="1370" y="480" width="30" height="30" as="geometry" />
        </mxCell>
        <mxCell id="bN8PjPP0mZdIX8khiiVz-6" value="" style="endArrow=classic;html=1;rounded=0;exitX=0.541;exitY=1.005;exitDx=0;exitDy=0;exitPerimeter=0;entryX=0.5;entryY=1;entryDx=0;entryDy=0;edgeStyle=orthogonalEdgeStyle;elbow=vertical;curved=1;" edge="1" parent="1" source="-jfg4AWXQA8gevnk_Bxj-1" target="-jfg4AWXQA8gevnk_Bxj-6">
          <mxGeometry width="50" height="50" relative="1" as="geometry">
            <mxPoint x="1260" y="860" as="sourcePoint" />
            <mxPoint x="975" y="670" as="targetPoint" />
            <Array as="points">
              <mxPoint x="1178" y="790" />
              <mxPoint x="975" y="790" />
            </Array>
          </mxGeometry>
        </mxCell>
        <mxCell id="bN8PjPP0mZdIX8khiiVz-9" value="" style="verticalLabelPosition=bottom;verticalAlign=top;html=1;shape=mxgraph.basic.arc;startAngle=0.4394405292045783;endAngle=0.5362184905083971;strokeWidth=5;fillColor=#e51400;strokeColor=#B20000;fontColor=#ffffff;" vertex="1" parent="1">
          <mxGeometry x="940" y="300" width="440" height="440" as="geometry" />
        </mxCell>
        <mxCell id="bN8PjPP0mZdIX8khiiVz-10" value="" style="verticalLabelPosition=bottom;verticalAlign=top;html=1;shape=mxgraph.basic.arc;startAngle=0.9139895651886847;endAngle=0.9814598082024512;strokeWidth=5;fillColor=#e51400;strokeColor=#B20000;fontColor=#ffffff;" vertex="1" parent="1">
          <mxGeometry x="940" y="300" width="440" height="440" as="geometry" />
        </mxCell>
        <mxCell id="bN8PjPP0mZdIX8khiiVz-11" value="" style="endArrow=classic;html=1;rounded=0;exitX=0.33;exitY=0.027;exitDx=0;exitDy=0;exitPerimeter=0;entryX=0.5;entryY=0;entryDx=0;entryDy=0;edgeStyle=orthogonalEdgeStyle;curved=1;" edge="1" parent="1" source="bN8PjPP0mZdIX8khiiVz-10" target="-jfg4AWXQA8gevnk_Bxj-10">
          <mxGeometry width="50" height="50" relative="1" as="geometry">
            <mxPoint x="1490" y="320" as="sourcePoint" />
            <mxPoint x="1540" y="270" as="targetPoint" />
            <Array as="points">
              <mxPoint x="1085" y="240" />
              <mxPoint x="1315" y="240" />
            </Array>
          </mxGeometry>
        </mxCell>
        <mxCell id="bN8PjPP0mZdIX8khiiVz-12" value="" style="verticalLabelPosition=bottom;verticalAlign=top;html=1;shape=mxgraph.basic.arc;startAngle=0.13921476347214623;endAngle=0.21331130982561358;strokeWidth=5;fillColor=#e51400;strokeColor=#B20000;fontColor=#ffffff;" vertex="1" parent="1">
          <mxGeometry x="940" y="300" width="440" height="440" as="geometry" />
        </mxCell>
        <mxCell id="bN8PjPP0mZdIX8khiiVz-13" value="" style="endArrow=classic;html=1;rounded=0;exitX=0.945;exitY=0.259;exitDx=0;exitDy=0;exitPerimeter=0;edgeStyle=orthogonalEdgeStyle;curved=1;" edge="1" parent="1" source="bN8PjPP0mZdIX8khiiVz-12" target="-jfg4AWXQA8gevnk_Bxj-5">
          <mxGeometry width="50" height="50" relative="1" as="geometry">
            <mxPoint x="1570" y="520" as="sourcePoint" />
            <mxPoint x="1620" y="470" as="targetPoint" />
            <Array as="points">
              <mxPoint x="1430" y="414" />
              <mxPoint x="1430" y="617" />
            </Array>
          </mxGeometry>
        </mxCell>
        <mxCell id="bN8PjPP0mZdIX8khiiVz-14" value="" style="shape=flexArrow;endArrow=classic;html=1;rounded=0;fillColor=#dae8fc;strokeColor=#6c8ebf;" edge="1" parent="1">
          <mxGeometry width="50" height="50" relative="1" as="geometry">
            <mxPoint x="1420" y="370" as="sourcePoint" />
            <mxPoint x="1360" y="400" as="targetPoint" />
            <Array as="points">
              <mxPoint x="1420" y="370" />
            </Array>
          </mxGeometry>
        </mxCell>
        <mxCell id="bN8PjPP0mZdIX8khiiVz-16" value="" style="shape=flexArrow;endArrow=classic;html=1;rounded=0;fillColor=#dae8fc;strokeColor=#6c8ebf;" edge="1" parent="1">
          <mxGeometry width="50" height="50" relative="1" as="geometry">
            <mxPoint x="1190" y="820" as="sourcePoint" />
            <mxPoint x="1185" y="750" as="targetPoint" />
          </mxGeometry>
        </mxCell>
        <mxCell id="bN8PjPP0mZdIX8khiiVz-17" value="" style="shape=flexArrow;endArrow=classic;html=1;rounded=0;fillColor=#dae8fc;strokeColor=#6c8ebf;" edge="1" parent="1">
          <mxGeometry width="50" height="50" relative="1" as="geometry">
            <mxPoint x="1050" y="240" as="sourcePoint" />
            <mxPoint x="1070" y="300" as="targetPoint" />
          </mxGeometry>
        </mxCell>
      </root>
    </mxGraphModel>
  </diagram>
</mxfile>
